<?xml version="1.0" encoding="iso-8859-1"?>
<!-- Uploaded to: SVG Repo, www.svgrepo.com, Generator: SVG Repo Mixer Tools -->
<!DOCTYPE svg PUBLIC "-//W3C//DTD SVG 1.1//EN" "http://www.w3.org/Graphics/SVG/1.1/DTD/svg11.dtd">
<svg fill="#000000" height="800px" width="800px" version="1.1" id="Capa_1" xmlns="http://www.w3.org/2000/svg" xmlns:xlink="http://www.w3.org/1999/xlink" 
	 viewBox="0 0 414.904 414.904" xml:space="preserve">
<path d="M387.644,0.451c-3.69-1.214-7.746,0.077-10.055,3.204l-16.418,22.242l-7.029-17.654c-1.323-3.325-4.491-5.549-8.067-5.666
	c-3.601-0.127-6.884,1.897-8.421,5.128l-12.22,25.678c-1.534-0.197-3.081-0.296-4.637-0.296c-13.026,0-25.014,7.047-31.497,18.044
	l-48.366,1.253c-2.515,0.065-4.888,1.18-6.544,3.075c-1.655,1.894-2.442,4.396-2.17,6.897c2.18,20.008,11.516,38.237,26.287,51.33
	c14.389,12.753,32.678,19.864,52.201,20.077v26.743c0,0-219.282,18.961-220.322,19.087c-24.723,2.986-47.288-13.485-50.836-37.971
	c-1.719-11.861,1.284-23.681,8.456-33.283c7.124-9.539,17.515-15.754,29.279-17.521l52.34-4.658c4.951-0.44,8.607-4.811,8.167-9.762
	c-0.441-4.952-4.808-8.608-9.763-8.166l-52.598,4.681c-0.165,0.015-0.329,0.034-0.493,0.057
	c-16.619,2.408-31.306,11.144-41.354,24.598c-10.049,13.454-14.257,30.017-11.849,46.635c4.191,28.926,27.567,50.414,55.357,53.47
	c-2.299,4.456-4.558,9.841-6.292,16.111c-4.75,17.168-6.433,44.617,11.304,79.533l-28.91,39.267
	c-1.474,2.002-2.054,4.524-1.602,6.968l12.539,67.985c0.787,4.269,4.51,7.368,8.851,7.368h12.771c2.597,0,5.067-1.122,6.776-3.078
	c1.709-1.956,2.49-4.554,2.143-7.127l-6.828-50.527l83.218-57.643c0.23-0.159-0.215,0.18,0,0
	c7.567-6.356,13.621-13.812,18.063-22.229c46.458,8.159,105.765,18.445,143.826,24.563l17.051,108.44
	c0.689,4.377,4.46,7.602,8.891,7.602H369.4c4.971,0,9-4.029,9-9v-108.43c10.163-4.889,15.43-18.002,15.431-30.99V9
	C393.83,5.113,391.335,1.666,387.644,0.451z"/>
</svg>